<?xml version="1.0" encoding="utf-8"?>
<!-- Generator: Adobe Illustrator 27.5.0, SVG Export Plug-In . SVG Version: 6.00 Build 0)  -->
<svg version="1.1" xmlns="http://www.w3.org/2000/svg" xmlns:xlink="http://www.w3.org/1999/xlink" x="0px" y="0px"
	 viewBox="0 0 750 500" style="enable-background:new 0 0 750 500;" xml:space="preserve">
<g id="OBJECTS">
	<g>
		<defs>
			<rect id="SVGID_1_" width="750" height="500"/>
		</defs>
		<clipPath id="SVGID_00000111157501636882167800000011893858131699945359_">
			<use xlink:href="#SVGID_1_"  style="overflow:visible;"/>
		</clipPath>
		<g style="clip-path:url(#SVGID_00000111157501636882167800000011893858131699945359_);">
			<g>
				<path style="fill:#886541;" d="M340.926,224.699c-2.258-6.469-6.373-12.084-8.852-18.459
					c-2.387-6.139-3.453-12.665-3.682-19.229c-0.114-3.285-0.015-6.568,0.261-9.843c0.302-3.576,0.808-7.133,0.977-10.72
					c0.309-6.563-0.474-13.764-4.912-18.965c-4.236-4.963-10.539-7.418-16.936-7.943c-2.153-0.177-4.307-0.171-6.459-0.073
					c-1.19-0.943-2.436-1.81-3.758-2.528c-2.493-1.354-5.1-2.488-7.785-3.404c-5.62-1.917-11.614-2.726-17.543-2.665
					c-5.792,0.059-11.631,1.1-17.091,3.031c-5.416,1.915-12.124,4.763-14.039,10.706c-1.897,5.887,0.969,12.191,4.781,16.647
					c3.778,4.416,9.078,8.322,10.926,14.057c0.881,2.735,0.851,5.777,0.297,8.574c-0.599,3.022-2.238,5.436-3.875,7.98
					c-1.869,2.906-3.591,6.293-3.011,9.871c0.504,3.108,2.461,5.289,4.814,7.226c2.108,1.735,3.778,3.031,4.394,5.84
					c0.627,2.865,0.121,5.845-0.246,8.704c-0.454,3.54-0.742,7.139,0.309,10.605c0.899,2.963,2.786,5.564,5.03,7.659
					c4.971,4.64,11.875,6.422,18.284,8.065c6.964,1.785,14.037,3.138,21.168,4.05c7.078,0.905,14.312,1.541,21.322-0.151
					c5.627-1.358,11.122-4.651,14.306-9.578C343.423,238.251,343.177,231.152,340.926,224.699z"/>
				<g>
					<g>
						<path style="fill:none;stroke:#272425;stroke-miterlimit:10;" d="M280.382,137.793"/>
					</g>
				</g>
				<g>
					<g>
						<path style="fill:#E8BB85;" d="M304.98,224.829c-1.686-3.592-2.63-10.078-1.892-14.596c0.281-1.72-0.443-3.243-2.639-2.957
							c-5.637,0.735-11.192,0.679-16.791-0.355c-1.891-0.349-3.983,0.827-3.913,2.981c0.113,3.485,0.226,6.97,0.339,10.455
							c0.144,4.457-0.192,6.26-4.719,7.72c-2.82,0.91-2.629,4.475-0.764,5.706c0.644,1.025,1.808,1.739,3.312,1.447
							c8.584-1.667,17.152-3.412,25.704-5.234C306.085,229.47,306.353,226.486,304.98,224.829z"/>
						<g>
							<path style="fill:#E8BB85;" d="M298.322,139.655c-8.487-1.898-18.718-0.144-26.734,3.069
								c-13.095,5.249-14.113,16.255-12.804,29.116c1.114,10.943,0.209,21.508,5.456,31.106c3.035,5.55,11.593,11.237,17.753,13.137
								c6.575,2.028,13.176-0.5,18.466-4.562c11.854-9.103,20.79-24.965,20.584-40.367
								C320.855,157.054,312.362,142.795,298.322,139.655z"/>
							<path style="fill:#CCA47C;" d="M309.47,175.506c-0.792-0.193-1.566,0.516-1.368,1.322c0.135,0.552,0.988,0.318,0.852-0.235
								c-0.033-0.134,0.122-0.24,0.241-0.239c0.195,0.002,0.37,0.181,0.451,0.343c0.233,0.466,0.115,1.096-0.006,1.579
								c-0.267,1.065-0.878,2.014-1.562,2.859c-0.15,0.185-0.181,0.443,0,0.625c0.155,0.155,0.474,0.186,0.625,0
								c1.006-1.242,1.917-2.719,1.947-4.368C310.663,176.598,310.318,175.713,309.47,175.506z"/>
							<path style="fill:#9ABFBC;" d="M308.229,184.358c-1.137,0-1.139,1.767,0,1.767
								C309.365,186.125,309.367,184.358,308.229,184.358z"/>
						</g>
					</g>
					<g>
						<path style="fill:#886541;" d="M272.264,173.701c-1.396-0.989-3.075-1.507-4.792-1.358c-1.681,0.145-3.197,0.912-4.401,2.074
							c-0.421,0.406-0.279,1.176,0.135,1.523c0.488,0.408,1.101,0.272,1.523-0.135c0.727-0.701,1.841-1.214,2.934-1.308
							c1.135-0.098,2.342,0.246,3.213,0.863c0.476,0.337,1.126,0.338,1.523-0.135C272.752,174.803,272.744,174.041,272.264,173.701z
							"/>
						<path style="fill:#886541;" d="M291.749,172.615c-1.396-0.989-3.075-1.507-4.792-1.358c-1.681,0.145-3.197,0.913-4.401,2.074
							c-0.421,0.406-0.279,1.176,0.135,1.523c0.488,0.408,1.101,0.272,1.523-0.135c0.727-0.702,1.841-1.214,2.934-1.308
							c1.135-0.098,2.342,0.246,3.213,0.863c0.476,0.337,1.126,0.338,1.523-0.135C292.236,173.717,292.228,172.954,291.749,172.615z
							"/>
						<ellipse cx="269.203" cy="183.473" rx="1.101" ry="1.404"/>
						<ellipse cx="285.85" cy="183.188" rx="1.101" ry="1.404"/>
						<path style="fill:#C08B73;" d="M275.521,195.211c-1.177-0.565-1.599-1.978-1.5-3.199c0.123-1.52,0.792-2.947,1.191-4.406
							c0.81-2.959,1.055-6.06,0.756-9.112c-0.045-0.462-0.763-0.399-0.718,0.064c0.329,3.355-0.021,6.76-1.061,9.969
							c-0.46,1.421-1.059,2.903-0.869,4.428c0.151,1.212,0.769,2.369,1.901,2.912C275.64,196.067,275.94,195.412,275.521,195.211z"
							/>
						<ellipse style="fill:#E28C61;" cx="289.725" cy="191.313" rx="4.215" ry="2.198"/>
						<path style="fill:#E28C61;" d="M269.999,190.773c0,1.214-1.887,2.198-4.215,2.198c-2.328,0-4.216-0.984-4.216-2.198
							c0-1.214,1.887-2.198,4.216-2.198C268.112,188.575,269.999,189.559,269.999,190.773z"/>
						<path style="fill:#FFFFFF;" d="M271.529,200.254c0,0,8.869-0.173,12.068-0.403
							C283.597,199.851,278.269,207.34,271.529,200.254z"/>
					</g>
				</g>
				<path style="fill:#886541;" d="M313.095,175.228c0.342,0.696,0.351,1.501,0.294,2.271c-0.214,2.898-1.293,5.73-3.071,8.061
					c-0.456,0.598-0.986,1.184-1.693,1.465c-0.708,0.282-1.633,0.167-2.076-0.44c-2.554,6.888-3.691,15.029-3.404,22.927
					c-0.004-0.103,2.942-2.376,3.253-2.651c2.914-2.583,5.04-5.925,7.488-8.931c5.173-6.353,7.443-14.928,8.167-22.918
					c0.683-7.534-0.387-15.083-4.277-21.659c-3.509-5.933-9.226-10.524-15.737-13.093s-13.77-3.161-20.702-2.055
					c-9.442,1.506-18.67,6.519-23.264,14.703c-1.186,2.113-2.063,4.517-1.713,6.901c0.599,4.078,4.85,7.016,9.072,7.157
					c4.222,0.14,8.239-2.006,11.282-4.864c0.607,1.841,2.768,2.695,4.722,3.032c5.683,0.979,11.768-0.531,16.28-4.039
					c-0.293,2.85,0.84,5.7,2.542,8.034c1.156,1.586,3.981,5.466,6.163,5.61C308.518,171.947,311.461,171.898,313.095,175.228z"/>
			</g>
			<path style="fill:#D3947F;" d="M342.901,372.377c-0.928-1.155-1.6-1.595-1.6-1.595l-0.057,0.198
				c-0.055-0.065-0.103-0.134-0.161-0.198c-2.081-2.295-5.228-2.466-8.063-1.917c-8.405,1.628-16.563,3.625-25.125,4.426
				c-17.157,1.604-34.422,0.586-51.261-3.055c-1.107-0.239-2.105-0.151-2.975,0.162c-3.185-2.72-9.242-1.536-8.743,3.652
				c3.887,40.447,6.967,91.246,10.854,131.693c0.287,2.983,2.202,5.123,5.3,5.3c9.064,0.518,18.792-8.591,27.654-6.623
				c3.134,0.696,6.96-1.5,6.709-5.111c-2.103-30.184-2.068-60.498,0.22-90.668c0.521,1.88,1.003,3.772,1.443,5.673
				c1.617,6.977,2.724,14.061,3.543,21.173c1.671,14.512,2.392,29.118,4.293,43.605c0.834,6.355,0.396,27.635,3.362,33.42
				c3.132,6.109,9.475,5.642,15.428,5.641c5.553-0.001,13.346,1.073,15.609-5.545c1.079-3.158,1.644-20.197,1.92-23.517
				c0.361-4.351,0.657-8.706,0.9-13.065c0.918-16.433,1.155-32.9,1.157-49.369c0.257-1.027,0.516-2.056,0.782-3.114
				C352.665,389.465,346.18,376.458,342.901,372.377z"/>
			<g>
				<path style="fill:#E8BB85;" d="M385.524,200.326c-0.035-0.903-1.283-1.134-1.652-0.309c-2.611,5.848-4.221,13.294-4.221,13.294
					s0.799-11.079-0.182-17.171c-0.141-0.876-1.378-0.974-1.659-0.133c-1.898,5.666-3.547,17.304-3.547,17.304
					c0.467-5.514-0.686-14.657-1.437-19.742c-0.14-0.95-1.494-0.986-1.692-0.046c-1.535,7.304-1.721,19.788-1.721,19.788
					c0.254-5.337-1.303-11.952-2.494-16.128c-0.264-0.926-1.62-0.783-1.683,0.178c-0.249,3.763-0.386,9.624,0.405,15.95
					l0.808,12.663c0,0-8.002-2.542-12.516-1.882c-0.852,0.124-1.001,1.294-0.212,1.64c3.742,1.641,12.058,5.475,17.847,9.537
					c0,0,5.658,0.404,10.373-3.368c4.715-3.772,1.212-18.591,1.212-18.591S385.764,206.586,385.524,200.326z"/>
				<path style="fill:#E8BB85;" d="M250.702,412.45c-0.841-5.396-1.683-10.793-2.524-16.189c-0.202-1.295-0.404-2.59-0.606-3.885
					c-0.201-1.289-0.346-2.562-1.115-3.658c-0.671-0.956-1.651-1.556-2.7-2.02c-0.591-0.261-1.634-0.497-1.76-1.195
					c-0.223-0.873-1.013-1.484-1.875-1.596c-0.438-0.534-1.13-0.893-1.774-0.893c-1.309,0-2.07,1.018-2.208,2.208
					c-1.256,10.78,4.802,20.371,10.526,28.929C248.115,416.318,251.083,414.891,250.702,412.45z"/>
				<g>
					<path style="fill:#7A9793;" d="M382.582,231.375c-4.6-1.89-10.034-1.886-14.63,0.015c-1.063,0.44-1.941,1.484-1.542,2.716
						c0.331,1.024,1.573,2.015,2.716,1.542c4.115-1.701,8.161-1.708,12.282-0.015c1.072,0.44,2.474-0.476,2.716-1.542
						C384.417,232.807,383.729,231.847,382.582,231.375z"/>
					<path style="fill:#9ABFBC;" d="M386.699,243.24c-0.322-2.831-0.85-5.874-2.899-7.855c-2.371-2.291-6.015-2.463-9.311-2.499
						c-2.26-0.025-4.651-0.016-6.592,1.142c-2.468,1.473-3.591,4.426-4.299,7.211c-2.217,8.723-2.043,18.041,0.498,26.674
						c-0.352-0.38-0.736-0.731-1.146-1.047c-1.545-1.194-3.81-0.52-4.488,1.31c-0.244,0.659-0.463,1.328-0.657,2.003
						c-0.469-2.266-1.09-4.765-3.02-6.042c-1.929-1.277-5.357,0.069-4.919,2.341c-2.886-7.398-6.519-14.624-11.827-20.531
						c-6.772-7.537-15.827-12.441-25.009-16.431c-2.685-1.167-5.686-2.861-8.625-4.033c-0.023,0.026-0.038,0.053-0.062,0.079
						c-5.719,5.947-20.427,8.541-26.965,2.249c-0.356,0.321-0.71,0.645-1.071,0.954c-6.884,5.899-17.299,6.93-23.213,13.801
						c-3.112,3.617-4.514,8.366-5.677,12.993c-6.648,26.452-8.249,54.213-17.768,79.772c-1.456,3.909-3.116,7.869-3.144,12.04
						c-0.036,5.383,2.66,10.515,2.563,15.897c-0.094,5.237-2.759,10.863,0.702,15.297c0.455,0.583,1.01,1.087,1.596,1.537
						c6.238,4.785,9.528,4.754,15.781,7.372c-0.319-5.595-0.519-9.102-0.838-14.697c5.844,6.504,14.807,9.135,23.401,10.75
						c18.624,3.499,38.393,3.498,55.958-3.611c7.336-2.969,14.698-7.761,17.168-15.279c2.312-7.038-0.197-14.623-2.106-21.781
						c-3.267-12.246-4.785-24.958-4.491-37.628c0.046-1.991,0.186-4.122,1.401-5.699c1.61-2.089,4.653-2.535,7.23-1.975
						c2.578,0.559,4.901,1.918,7.37,2.847c6.726,2.53,14.636,1.658,20.65-2.276c9.83-6.432,13.24-19.189,14.192-30.898
						C387.732,259.243,387.604,251.198,386.699,243.24z"/>
					<path style="fill:#7A9793;" d="M305.221,223.787c-8.922,4.907-19.51,7.722-29.015,2.688c-4.518-2.393-8.54,4.466-4.012,6.864
						c12.136,6.428,25.491,3.664,37.04-2.688C313.718,228.186,309.711,221.318,305.221,223.787z"/>
					<g>
						<path style="fill:#7A9793;" d="M337.14,365.499c-7.555,14.825-25.186,17.021-40.141,16.387
							c-8.408-0.357-16.87-0.971-25.256-1.68c-8.098-0.685-16.277-2.463-22.188-8.416c-3.61-3.635-9.232,1.985-5.621,5.621
							c6.253,6.298,14.509,9.109,23.152,10.245c10.373,1.363,21.155,1.927,31.612,2.242c17.23,0.519,36.791-3.675,45.307-20.387
							C346.322,364.963,339.466,360.935,337.14,365.499z"/>
						<path style="fill:#7A9793;" d="M245.917,385.428c-2.243-0.331-4.451-0.859-6.596-1.595c-0.545-0.187-1.085-0.386-1.62-0.599
							c0.007,0.003-0.323-0.132-0.393-0.158c-0.26-0.11-0.518-0.225-0.774-0.342c-1.048-0.479-2.07-1.01-3.07-1.584
							c-1.002-0.575-2.461-0.268-3.021,0.792c-0.556,1.052-0.278,2.407,0.792,3.022c4.162,2.389,8.759,4.023,13.508,4.724
							c1.138,0.168,2.429-0.282,2.716-1.542C247.699,387.097,247.139,385.609,245.917,385.428z"/>
					</g>
					<g>
						<path style="fill:#BFE2DE;" d="M333.618,270.179c-26.723-6.668-54.957-5.956-81.31,2.125c-0.378,2.422-0.343,4.963-0.248,7.48
							c26.853-8.662,55.588-9.359,82.801-1.974C334.444,275.27,333.973,272.726,333.618,270.179z"/>
						<path style="fill:#BFE2DE;" d="M335.787,285.278c-27.667-5.953-56.534-4.888-83.661,3.219c-0.101,2.529-0.3,5.083-0.672,7.603
							c27.433-8.667,56.666-9.914,84.7-3.524C336.125,290.137,335.996,287.697,335.787,285.278z"/>
					</g>
					<g>
						<path style="fill:#7A9793;" d="M367.361,277.007c-1.805-1.201-3.196-2.99-3.915-5.036c-0.161-0.461-0.663-0.701-1.126-0.54
							c-0.46,0.162-0.702,0.666-0.54,1.126c0.845,2.406,2.481,4.508,4.604,5.921c0.15,0.1,0.32,0.148,0.488,0.148
							c0.286,0,0.566-0.138,0.737-0.394C367.878,277.825,367.767,277.277,367.361,277.007z"/>
						<path style="fill:#7A9793;" d="M356.823,271.926c-0.473-0.058-0.926,0.282-0.987,0.766l-0.542,4.282
							c-0.061,0.484,0.282,0.926,0.766,0.987c0.037,0.005,0.074,0.007,0.111,0.007c0.439,0,0.819-0.326,0.876-0.772l0.542-4.282
							C357.65,272.429,357.307,271.987,356.823,271.926z"/>
						<path style="fill:#7A9793;" d="M319.577,350.616c-6.086,1.868-12.621,3.672-19.177,4.228
							c-7.211,0.613-13.592-0.349-18.972-2.854c-0.444-0.206-0.969-0.013-1.173,0.428c-0.206,0.442-0.015,0.967,0.428,1.174
							c4.568,2.126,9.8,3.197,15.6,3.197c1.39,0,2.812-0.062,4.266-0.185c6.722-0.57,13.367-2.403,19.546-4.299
							c0.467-0.143,0.729-0.637,0.586-1.104C320.537,350.735,320.044,350.473,319.577,350.616z"/>
						<path style="fill:#7A9793;" d="M303.341,348.297c1.488,0.197,2.993,0.295,4.501,0.295c3.372,0,6.755-0.489,9.97-1.452
							c0.468-0.14,0.732-0.632,0.593-1.1c-0.141-0.467-0.632-0.734-1.1-0.593c-4.416,1.323-9.163,1.701-13.733,1.099
							c-0.487-0.067-0.927,0.277-0.991,0.76C302.517,347.789,302.857,348.233,303.341,348.297z"/>
						<path style="fill:#7A9793;" d="M252.783,264.124c-0.489-0.024-0.901,0.351-0.926,0.838
							c-0.895,18.002-1.909,36.302-2.889,53.999l-0.024,0.44c-0.022,0.393-0.044,0.788-0.066,1.183
							c-2.516-1.056-5.455-1.013-7.929,0.171c-0.44,0.211-0.626,0.737-0.416,1.178c0.21,0.44,0.736,0.626,1.178,0.415
							c2.183-1.045,4.908-0.971,7.057,0.147c-0.516,8.827-1.271,17.833-4.175,26.26c-0.318,0.925-0.663,1.842-1.007,2.759
							c-0.808,2.154-1.644,4.382-2.138,6.7c-0.587,2.76-0.875,6.773,1.097,10.22c0.163,0.285,0.461,0.445,0.768,0.445
							c0.148,0,0.299-0.038,0.438-0.116c0.423-0.242,0.57-0.782,0.328-1.206c-1.696-2.963-1.427-6.516-0.902-8.974
							c0.466-2.189,1.278-4.354,2.063-6.447c0.35-0.932,0.7-1.865,1.023-2.804c3.324-9.646,3.894-19.908,4.443-29.832l0.025-0.44
							c0.98-17.699,1.993-36.001,2.89-54.008C253.646,264.562,253.271,264.148,252.783,264.124z"/>
						<path style="fill:#7A9793;" d="M334.818,266.824c-0.171-0.458-0.68-0.691-1.136-0.52c-0.457,0.17-0.69,0.678-0.52,1.136
							c0.321,0.862,0.37,1.867,0.417,2.838l1.12,23.389c0.022,0.473,0.413,0.841,0.882,0.841c0.015,0,0.028-0.001,0.043-0.001
							c0.487-0.023,0.863-0.437,0.84-0.925l-1.12-23.389C335.293,269.138,335.234,267.942,334.818,266.824z"/>
					</g>
				</g>
			</g>
		</g>
		<g style="clip-path:url(#SVGID_00000111157501636882167800000011893858131699945359_);">
			<path style="fill:#EAAA85;" d="M554.396,99.5c-0.037-0.978-1.389-1.228-1.788-0.334c-2.826,6.329-4.569,14.388-4.569,14.388
				s0.864-11.991-0.197-18.584c-0.152-0.948-1.491-1.054-1.796-0.144c-2.055,6.132-3.839,18.728-3.839,18.728
				c0.506-5.967-0.743-15.863-1.555-21.366c-0.152-1.028-1.617-1.067-1.831-0.05c-1.661,7.904-1.863,21.416-1.863,21.416
				c0.275-5.776-1.41-12.935-2.699-17.455c-0.286-1.002-1.753-0.847-1.821,0.193c-0.269,4.073-0.418,10.416,0.438,17.262
				l0.875,13.705c0,0-8.66-2.751-13.545-2.037c-0.922,0.135-1.083,1.4-0.229,1.775c4.05,1.776,13.05,5.925,19.315,10.322
				c0,0,6.123,0.438,11.227-3.645c5.103-4.082,1.312-20.12,1.312-20.12S554.655,106.274,554.396,99.5z"/>
			<path style="fill:#EAAA85;" d="M403.315,422.378c-1.346-5.454-1.924-11.036-1.705-16.651c0.099-2.546,0.939-5.58-0.319-7.951
				c-1.129-2.127-3.521-2.928-5.745-3.292c-0.19-0.031-0.371-0.034-0.55-0.032c-1.022-1.512-3.775-1.689-4.293,0.579
				c-2.415,10.581,0.865,22.049,8.618,29.673C401.046,426.4,403.884,424.682,403.315,422.378z"/>
			<path style="fill:#B45D52;" d="M475.305,209.49c-2.036-0.467-4.253-0.142-6.279,0.217c-2.124,0.376-4.19,1.01-6.247,1.647
				c-4.219,1.307-8.37,2.374-12.814,2.445c-2.494,0.04-4.977-0.163-7.425-0.641c-2.532-0.494-5.024-1.182-7.58-1.549
				c-4.69-0.675-9.333-0.223-13.158,2.785c-0.292,0.229-0.475,0.541-0.582,0.883c-0.978,0.822-1.384,2.295-0.177,3.412
				c3.471,3.213,6.942,6.427,10.413,9.64c1.692,1.566,3.372,3.145,5.077,4.697c1.543,1.406,3.174,2.76,5.108,3.587
				c4.262,1.822,8.804,0.494,12.627-1.747c3.756-2.202,7.33-4.805,10.812-7.413c3.574-2.677,7.048-5.491,10.351-8.498
				c1.566-1.426,3.551-3.021,3.531-5.354C478.943,211.488,477.264,209.939,475.305,209.49z"/>
			<g>
				<path style="fill:#E8DFF7;" d="M497.523,383.918c-13.983-0.79-28.297,3.101-42.24,3.915
					c-12.705,0.742-25.665-0.337-36.849-6.887c-2.305-1.35-4.527-0.916-6.131,0.36c-3.474-1.856-8.766-0.278-8.543,4.777
					c1.238,28.152,3.017,56.279,5.373,84.359c0.576,6.864,1.186,13.725,1.829,20.583c0.565,6.025,0.133,13.51,2.249,19.198
					c2.225,5.979,7.906,6.237,13.378,6.685c7.134,0.585,14.268,1.17,21.402,1.755c3.11,0.255,5.714-2.835,5.736-5.736
					c0.238-31.106,1.089-62.202,2.539-93.274c2.866,8.197,3.507,26.197,3.856,29.407c1.441,13.251,2.881,26.503,4.322,39.755
					c1.083,9.96-0.076,24.887,8.851,31.641c6.451,4.881,19.836,6.11,26.846,1.722c4.819-3.017,5.316-8.201,5.443-13.374
					c0.163-6.659,0.259-13.32,0.388-19.979c0.253-13.002,0.506-26.004,0.759-39.007c0.259-13.319,0.518-26.639,0.777-39.958
					C507.684,400.829,510.766,384.666,497.523,383.918z"/>
				<path style="fill:#BFBACB;" d="M409.305,422.429c-0.018,0-0.035,0-0.053-0.001c-0.544-0.017-1.02-0.297-1.304-0.768
					c-0.273-0.452-0.128-1.039,0.325-1.313c0.374-0.228,0.845-0.165,1.149,0.122c0.159-0.082,0.395-0.26,0.555-0.49
					c3.902-5.625,5.837-12.487,5.447-19.322c-0.031-0.527,0.372-0.979,0.9-1.009c0.482-0.025,0.978,0.372,1.008,0.9
					c0.414,7.26-1.639,14.548-5.785,20.522C411.088,421.731,410.196,422.429,409.305,422.429z"/>
				<path style="fill:#BFBACB;" d="M496.976,420.937c-0.246,0-0.492-0.094-0.679-0.282c-4.769-4.806-7.132-11.953-6.166-18.653
					c0.076-0.522,0.563-0.88,1.083-0.81c0.523,0.075,0.885,0.56,0.81,1.082c-0.882,6.118,1.275,12.645,5.63,17.034
					c0.371,0.375,0.37,0.98-0.006,1.352C497.463,420.844,497.22,420.937,496.976,420.937z"/>
			</g>
			<g>
				<path style="fill:#B45D52;" d="M554.73,136.413c-2.986-1.836-6.407-3.677-9.954-3.989c-3.699-0.325-6.924,1.271-9.977,3.178
					c-4.686,2.927-0.372,10.374,4.343,7.429c1.763-1.101,3.439-2.319,5.598-1.924c1.977,0.362,3.963,1.699,5.648,2.735
					C555.117,146.751,559.444,139.312,554.73,136.413z"/>
				<path style="fill:#B45D52;" d="M500.197,381.347c-13.832,7.323-30.075,8.484-45.462,8.441
					c-16.301-0.046-32.419-2.347-48.135-6.645c-3.798-1.039-6.046,2.844-5.119,5.706c-3.624,0.196-6.851-0.586-9.964-2.534
					c-4.707-2.946-9.031,4.495-4.342,7.429c4.387,2.746,9.527,4.072,14.696,3.694c3.167-0.232,4.51-3.191,4.026-5.579
					c16.509,4.371,33.565,6.649,50.652,6.529c16.397-0.115,33.292-1.83,47.99-9.612
					C509.435,386.185,505.092,378.755,500.197,381.347z"/>
				<path style="fill:#D76F5C;" d="M559.539,197.32c-0.882-7.986-0.92-16.037-0.246-24.043c0.831-9.872,1.036-19.787-2.976-28.836
					c-0.921-2.078-2.307-3.996-3.982-5.62c-6.919-6.708-18.63-1.667-18.803,7.969c-0.144,8.021,0.451,16.056,1.782,23.968
					c1.005,5.972,2.427,12.08,1.202,18.01c-0.407,1.973-1.101,3.826-1.998,5.577c-0.769-0.16-1.569-0.165-2.331,0.025
					c-0.131,0.033-0.269,0.076-0.354,0.181c-0.098,0.12-0.1,0.29-0.091,0.445c0.053,0.926,0.359,1.831,0.855,2.613
					c-0.156,0.16-0.117,0.12-0.273,0.28c-1.021-0.668-2.103-1.242-3.237-1.692c-0.645-0.256-1.419-0.463-1.997-0.079
					c-0.357,0.237-0.552,0.65-0.707,1.049c-0.498,1.277-1.302,5.17-0.521,7.35c-2.455,1.985-5.13,3.74-7.828,5.276
					c-10.344,5.888-21.801,9.784-33.574,11.526c-1.192-0.01-2.393,0.144-3.587,0.258c-0.436,0.042-1.247,0.197-1.715,0.028
					c-0.001-0.048,0.006-0.112,0.033-0.202c0.093-0.311,0.189-0.561,0.323-0.853c0.935-2.031,1.852-3.927,1.511-6.231
					c-0.307-2.079-1.683-3.961-3.724-4.621c-1.956-0.632-4.131-0.022-5.766,1.126c-1.819,1.278-3.4,2.934-5.035,4.432l-5.061,4.638
					c-3.316,3.039-6.632,6.078-9.947,9.117c-0.773,0.708-1.649,1.427-2.336,2.258c-3.038-2.784-6.075-5.568-9.113-8.351
					l-5.061-4.638c-1.635-1.498-3.215-3.155-5.035-4.432c-1.635-1.148-3.81-1.759-5.766-1.126c-2.041,0.66-3.417,2.541-3.724,4.621
					c-0.341,2.305,0.576,4.201,1.511,6.231c0.135,0.292,0.23,0.543,0.323,0.853c0.027,0.09,0.033,0.153,0.033,0.202
					c-0.468,0.169-1.279,0.013-1.715-0.028c-2.098-0.2-4.217-0.543-6.271,0.147c-1.935,0.65-3.532,1.993-4.215,3.952
					c-1.501,4.304,1.837,8.606,5.085,11.089c-1.022,0.933-2.038,1.87-3.047,2.807c-5.897,5.479-11.892,11.08-15.817,18.108
					c-3.77,6.752-5.423,14.462-6.708,22.088c-1.941,11.521-3.157,23.165-3.637,34.838c-0.346,8.402-0.42,17.237-4.586,24.541
					c-2.34,4.103-5.932,7.635-6.971,12.243c-0.733,3.252-0.088,6.638,0.557,9.909c1.374,6.964,2.958,14.343,7.896,19.442
					c5.6,5.783,14.165,7.285,22.125,8.487c-0.348-2.46-0.695-4.92-1.043-7.381c30.12,11.863,64.624,12.184,94.96,0.885
					c2.007-0.748,4.093-1.614,5.413-3.301c1.892-2.418,1.706-5.807,1.43-8.865c-1.504-16.611-3.008-33.222-4.511-49.833
					c-1.614-17.827-3.011-36.815,5.363-52.635c3.913-7.392,9.725-13.573,15.466-19.655c9.384-9.942,18.802-19.916,29.517-28.426
					c0.926-0.735,1.823-1.512,2.609-2.396C559.934,214.222,560.445,205.529,559.539,197.32z"/>
				<path style="fill:#F99285;" d="M423.499,269.727c0,0,26.169-14.199,62.421,0v16.964c0,0-21.127-12.608-62.421-1.565V269.727z"/>
				<g>
					<path style="fill:#B45D52;" d="M409.86,276.88c-0.527-0.066-1.002,0.307-1.067,0.829c-2.152,17.172-3.781,34.616-4.865,51.905
						c-2.518-2.097-5.868-3.224-9.145-3.02c-0.526,0.034-0.927,0.488-0.893,1.014c0.033,0.527,0.483,0.931,1.015,0.894
						c2.994-0.191,6.095,0.927,8.285,2.987c0.171,0.161,0.387,0.239,0.605,0.25c-0.023,0.378-0.049,0.758-0.071,1.136
						c-2.075-0.453-4.317,0.044-5.981,1.379c-0.413,0.33-0.479,0.932-0.148,1.343c0.189,0.236,0.466,0.358,0.747,0.358
						c0.209,0,0.42-0.069,0.596-0.21c1.279-1.024,3.097-1.379,4.672-0.934c-0.278,4.71-0.615,9.54-1.656,14.152
						c-0.58,2.569-1.396,5.143-2.185,7.632c-0.764,2.407-1.552,4.896-2.142,7.413c-1.473,6.296-1.269,11.674,0.606,15.985
						c0.157,0.36,0.508,0.575,0.878,0.575c0.127,0,0.256-0.026,0.38-0.08c0.484-0.211,0.707-0.774,0.496-1.258
						c-1.707-3.925-1.875-8.9-0.498-14.787c0.572-2.445,1.35-4.898,2.102-7.271c0.802-2.527,1.63-5.14,2.228-7.788
						c1.157-5.123,1.465-10.427,1.764-15.557l0.049-0.834c1.075-18.315,2.777-36.836,5.059-55.048
						C410.755,277.424,410.384,276.946,409.86,276.88z"/>
					<path style="fill:#B45D52;" d="M512.844,234.055c-0.46-0.26-1.044-0.099-1.304,0.359c-9.3,16.383-16.613,33.885-21.733,52.018
						c-0.144,0.508,0.151,1.037,0.66,1.18c0.087,0.024,0.174,0.036,0.26,0.036c0.416,0,0.8-0.275,0.919-0.696
						c5.079-17.985,12.332-35.344,21.557-51.594C513.464,234.899,513.302,234.315,512.844,234.055z"/>
					<path style="fill:#B45D52;" d="M512.065,249.563c-0.489-0.198-1.047,0.038-1.244,0.527c-1.441,3.559-3.096,7.078-4.917,10.46
						c-0.25,0.465-0.076,1.045,0.388,1.295c0.145,0.078,0.3,0.114,0.453,0.114c0.341,0,0.67-0.182,0.843-0.503
						c1.853-3.442,3.537-7.025,5.005-10.648C512.79,250.319,512.555,249.761,512.065,249.563z"/>
					<path style="fill:#B45D52;" d="M543.643,204.312c-2.048-0.706-4.091-1.507-6.072-2.381c-0.472-0.209-0.99-0.458-1.144-0.786
						c-0.224-0.477-0.791-0.685-1.271-0.46c-0.478,0.224-0.683,0.793-0.459,1.271c0.434,0.926,1.313,1.376,2.103,1.724
						c2.029,0.895,4.122,1.716,6.219,2.439c0.104,0.036,0.208,0.053,0.312,0.053c0.397,0,0.767-0.249,0.904-0.645
						C544.406,205.028,544.141,204.484,543.643,204.312z"/>
					<path style="fill:#B45D52;" d="M534.03,209.935c-1.427-0.716-2.388-2.27-2.391-3.866c-0.001-0.527-0.429-0.954-0.956-0.954
						c-0.001,0-0.001,0-0.002,0c-0.528,0.001-0.955,0.43-0.954,0.958c0.005,2.301,1.389,4.54,3.446,5.572
						c0.137,0.069,0.284,0.101,0.428,0.101c0.35,0,0.688-0.193,0.855-0.527C534.693,210.746,534.502,210.172,534.03,209.935z"/>
					<path style="fill:#B45D52;" d="M444.409,251.32c0.303,0,0.602-0.144,0.788-0.413c0.3-0.435,0.19-1.03-0.244-1.33
						c-5.941-4.103-12.084-8.347-18.909-11.227c-0.484-0.205-1.047,0.023-1.252,0.509c-0.205,0.486,0.022,1.047,0.509,1.252
						c6.642,2.804,12.703,6.99,18.565,11.039C444.033,251.265,444.221,251.32,444.409,251.32z"/>
					<path style="fill:#B45D52;" d="M481.983,230.233c-5.616,6.398-11.762,12.429-18.269,17.926
						c-0.403,0.34-0.454,0.944-0.113,1.347c0.189,0.224,0.458,0.339,0.731,0.339c0.217,0,0.437-0.074,0.616-0.226
						c6.579-5.558,12.794-11.656,18.473-18.125c0.348-0.397,0.309-1.001-0.088-1.349
						C482.936,229.797,482.333,229.836,481.983,230.233z"/>
					<path style="fill:#B45D52;" d="M449.053,250.768c-3.398,4.658-4.586,10.777-3.176,16.368c0.296,1.175,0.701,2.316,1.092,3.421
						c0.465,1.313,0.905,2.553,1.178,3.846c0.711,3.366,0.267,7.223-1.285,11.154c-1.482,3.757-3.787,7.205-5.831,10.142
						c-0.303,0.433-0.195,1.029,0.238,1.331c0.166,0.116,0.357,0.171,0.545,0.171c0.302,0,0.599-0.143,0.785-0.41
						c2.106-3.025,4.483-6.584,6.042-10.532c1.689-4.281,2.165-8.518,1.376-12.252c-0.3-1.417-0.781-2.775-1.247-4.09
						c-0.394-1.111-0.766-2.161-1.04-3.249c-1.272-5.046-0.201-10.569,2.866-14.774c0.312-0.427,0.217-1.025-0.208-1.336
						C449.959,250.248,449.363,250.341,449.053,250.768z"/>
					<path style="fill:#B45D52;" d="M460.879,271.229c-0.135-1.561-0.011-3.12,0.121-4.771c0.108-1.358,0.22-2.762,0.174-4.17
						c-0.138-4.186-1.682-8.27-4.348-11.499c-0.336-0.406-0.937-0.464-1.346-0.128c-0.407,0.336-0.465,0.939-0.129,1.346
						c2.398,2.904,3.788,6.579,3.913,10.344c0.042,1.301-0.061,2.59-0.17,3.955c-0.132,1.656-0.268,3.368-0.119,5.088
						c0.646,7.445,6.322,13.203,11.195,17.388c0.18,0.155,0.401,0.231,0.623,0.231c0.269,0,0.536-0.113,0.725-0.333
						c0.344-0.401,0.298-1.004-0.103-1.348C466.818,283.384,461.466,277.985,460.879,271.229z"/>
				</g>
			</g>
			<g>
				<g>
					<path style="fill:#EAAA85;" d="M462.842,224.888c-0.403-3.736-0.805-7.473-1.208-11.209c-0.108-0.997-0.213-1.994-0.322-2.991
						c-0.091-0.832-0.129-1.714-0.594-2.442c-0.857-1.341-2.471-1.507-3.921-1.478c-4.229,0.086-8.458,0.205-12.687,0.308
						c-1.752,0.042-3.889-0.246-5.57,0.302c-1.73,0.563-1.961,2.256-1.967,3.834c-0.018,4.612-0.016,9.224-0.023,13.835
						c-1.199,0.695-2.401,1.383-3.605,2.063c4.686,3.436,10.747,5.665,15.676,6.424c7.839,1.206,13.971-2.025,19.069-7.085
						C466.07,225.917,464.453,225.401,462.842,224.888z"/>
					<path style="fill:#EAAA85;" d="M480.949,170.868c-2.149,23.559-15.956,44.93-31.745,44.778
						c-15.578-0.15-29.748-21.016-31.745-44.778c-2.071-24.643,14.213-44.778,31.745-44.778S483.196,146.24,480.949,170.868z"/>
					<path style="fill:#EAAA85;" d="M486.871,168.345c-0.216-1.529-0.711-3.255-2.179-4.049c-2.005-1.084-3.863,0.304-4.803,2.055
						c-1.001,1.867-1.954,3.761-2.931,5.641c-0.476,0.916-0.236,2.077,0.686,2.616c0.161,0.094,0.338,0.152,0.52,0.193
						c-1.324,2.077-2.286,4.539-2.104,6.885c0.145,1.86,1.295,3.459,3.239,3.673c1.88,0.207,3.396-0.911,4.428-2.382
						c1.939-2.765,2.94-6.244,3.28-9.569C487.181,171.715,487.109,170.028,486.871,168.345z"/>
					<path style="fill:#EAAA85;" d="M411.547,173.409c0.339,3.326,1.341,6.804,3.28,9.569c1.032,1.471,2.548,2.589,4.428,2.382
						c1.944-0.214,3.095-1.813,3.239-3.673c0.182-2.346-0.78-4.808-2.104-6.885c0.182-0.041,0.36-0.099,0.52-0.193
						c0.922-0.539,1.162-1.7,0.686-2.616c-0.977-1.88-1.93-3.775-2.931-5.641c-0.94-1.751-2.798-3.139-4.803-2.055
						c-1.468,0.794-1.962,2.52-2.179,4.049C411.445,170.028,411.374,171.715,411.547,173.409z"/>
					<path style="fill:#C08B73;" d="M457.194,214.31c-4.6,1.248-9.466,1.154-14.017-0.261c-0.589-0.183-0.841,0.74-0.254,0.922
						c4.707,1.464,9.768,1.552,14.525,0.261C458.042,215.07,457.79,214.148,457.194,214.31z"/>
					<path style="fill:#C08B73;" d="M481.981,174.29c-0.475-0.343-1.228-0.38-1.622,0.11c-0.162,0.201-0.197,0.48,0,0.676
						c0.167,0.167,0.514,0.202,0.676,0c0.159-0.198,0.448-0.035,0.543,0.188c0.2,0.465,0.019,1.104-0.077,1.575
						c-0.236,1.153-0.633,2.263-1.182,3.304c-0.287,0.544,0.538,1.027,0.825,0.482c0.73-1.384,1.239-2.896,1.43-4.452
						C482.658,175.495,482.577,174.721,481.981,174.29z"/>
					<path style="fill:#C08B73;" d="M417.419,174.29c0.475-0.343,1.228-0.38,1.622,0.11c0.161,0.201,0.197,0.48,0,0.676
						c-0.167,0.167-0.514,0.202-0.676,0c-0.159-0.198-0.448-0.035-0.543,0.188c-0.2,0.465-0.019,1.104,0.077,1.575
						c0.236,1.153,0.633,2.263,1.182,3.304c0.287,0.544-0.538,1.027-0.826,0.482c-0.73-1.384-1.239-2.896-1.43-4.452
						C416.741,175.495,416.822,174.721,417.419,174.29z"/>
				</g>
				<g>
					<path d="M442.267,163.81c-1.511-1.07-3.328-1.63-5.186-1.47c-1.819,0.157-3.46,0.988-4.763,2.245
						c-0.455,0.439-0.301,1.273,0.147,1.648c0.528,0.442,1.191,0.294,1.648-0.147c0.787-0.759,1.993-1.313,3.175-1.416
						c1.228-0.106,2.535,0.266,3.478,0.934c0.516,0.365,1.219,0.366,1.648-0.146C442.795,165.003,442.786,164.178,442.267,163.81z"
						/>
					<path d="M466.593,166.126c-1.511-1.07-3.328-1.63-5.186-1.47c-1.82,0.157-3.46,0.988-4.763,2.245
						c-0.455,0.439-0.301,1.273,0.147,1.648c0.528,0.442,1.191,0.294,1.648-0.146c0.787-0.759,1.993-1.313,3.175-1.416
						c1.228-0.106,2.535,0.266,3.478,0.934c0.516,0.365,1.219,0.366,1.648-0.146C467.12,167.319,467.111,166.493,466.593,166.126z"
						/>
					<path style="fill:#C08B73;" d="M447.901,192.202c-1.274-0.611-1.73-2.14-1.624-3.462c0.133-1.646,0.857-3.19,1.289-4.768
						c0.876-3.202,1.142-6.559,0.819-9.861c-0.049-0.5-0.826-0.432-0.777,0.069c0.355,3.631-0.023,7.316-1.148,10.79
						c-0.498,1.538-1.146,3.142-0.941,4.792c0.164,1.311,0.833,2.564,2.058,3.151C448.029,193.129,448.354,192.419,447.901,192.202z
						"/>
					<path style="fill:#E28C61;" d="M467.836,187.984c0,1.314-2.043,2.379-4.562,2.379c-2.52,0-4.562-1.065-4.562-2.379
						c0-1.314,2.043-2.379,4.562-2.379C465.793,185.605,467.836,186.67,467.836,187.984z"/>
					<path style="fill:#E28C61;" d="M441.924,187.399c0,1.314-2.043,2.379-4.562,2.379c-2.52,0-4.562-1.065-4.562-2.379
						c0-1.314,2.043-2.379,4.562-2.379C439.882,185.02,441.924,186.085,441.924,187.399z"/>
					<path style="fill:#FFFFFF;" d="M438.612,197.77c0,0,17.017-0.331,23.153-0.774C461.765,196.996,445.939,209.258,438.612,197.77
						z"/>
					<path d="M437.993,172.227c-1.294,0.016-2.47,0.667-3.224,1.71c-0.86,1.191-1.149,2.641-1.396,4.061
						c-0.105,0.601,0.83,0.761,0.935,0.158c0.366-2.101,1.035-4.864,3.641-4.981c2.32-0.104,3.854,2.002,4.008,4.135
						c0.044,0.61,0.989,0.525,0.945-0.084C442.711,174.593,440.776,172.193,437.993,172.227z"/>
					<path d="M460.867,172.227c1.294,0.016,2.47,0.667,3.224,1.71c0.86,1.191,1.149,2.641,1.396,4.061
						c0.105,0.601-0.83,0.761-0.935,0.158c-0.366-2.101-1.035-4.864-3.641-4.981c-2.32-0.104-3.854,2.002-4.008,4.135
						c-0.044,0.61-0.989,0.525-0.945-0.084C456.149,174.593,458.084,172.193,460.867,172.227z"/>
				</g>
				<path style="fill:#AB4F00;" d="M485.044,145.584c-1.239-3.448-4.486-6.429-7.281-8.673c-1.766-1.418-3.641-2.628-5.605-3.689
					c0.208-0.407,0.35-0.849,0.398-1.314c0.319-3.106-2.307-5.058-4.928-5.965c-4.871-1.686-10.103-2.18-15.263-2.482
					c0.395-1.027,0.144-2.405-1.162-2.609c-7.536-1.174-15.199,0.778-21.151,5.582c-3.208,2.59-5.719,5.988-7.368,9.76
					c-0.838,1.918-1.456,3.933-1.839,5.99c-0.214,1.146-0.467,2.135-0.332,2.999c0.024,0.153,0.077,0.293,0.13,0.433
					c-0.303,0.24-0.563,0.554-0.765,0.976c-1.967,4.106-2.473,11.509-2.552,16.081c-0.039,2.243,0.156,4.509,0.59,6.708
					c0.352,1.781,0.707,4.946,3.23,4.204c2.281-0.671,1.977-3.412,2.048-5.295c0.097-2.558,0.357-5.12,0.994-7.603
					c0.878-3.426,2.513-6.734,5.048-9.158c3.095,1.673,6.294,3.151,9.572,4.427c2.709,1.054,6.234,2.536,8.89,0.555
					c0.769-0.574,1.348-1.402,1.658-2.306c1.999,0.715,3.999,1.429,5.998,2.144c2.615,0.935,5.36,2.224,8.189,2.239
					c2.406,0.013,4.648-1.079,5.735-3.286c0.362-0.735,0.567-1.549,0.588-2.356c0.642,0.029,1.283,0.058,1.925,0.088
					c1.598,2.255,2.637,4.935,3.208,7.662c0.526,2.508,0.673,5.079,0.656,7.639c-0.012,1.885-0.438,4.609,1.812,5.38
					c2.487,0.853,2.983-2.293,3.413-4.056c0.531-2.177,0.826-4.432,0.887-6.675c0.089-3.298-0.356-6.59-1.276-9.742
					c1.701-0.242,3.257-0.965,4.18-2.507C485.587,149.206,485.637,147.236,485.044,145.584z"/>
			</g>
		</g>
		<g style="clip-path:url(#SVGID_00000111157501636882167800000011893858131699945359_);">
			<path style="fill:#684C3D;" d="M568.53,353.357c-0.169-3.537-0.935-7.29-3.566-9.855c-2.551-2.488-6.063-3.408-9.375-1.994
				c-0.252,0.107-0.453,0.28-0.615,0.487c-0.893,0.187-1.65,0.868-1.614,2.057c0.404,13.201,0.992,26.399,1.996,39.569
				c0.995,13.05,2.542,26.022,4.32,38.986c0.971,7.081,2.049,14.177,4.31,20.981c0.762,2.294,4.299,1.972,4.307-0.583
				c0.049-15.021,0.097-30.043,0.146-45.064c0.024-7.511,0.049-15.021,0.073-22.532c0.012-3.719,0.024-7.438,0.036-11.157
				C568.56,360.628,568.702,356.976,568.53,353.357z"/>
			<g>
				<path style="fill:#89AFBD;" d="M667.632,414.455c1.982-19.846-6.963-31.754-8.386-33.507c-0.719-1.331-1.902-2.069-3.206-2.303
					c-1.12-1.232-2.832-1.845-4.949-1.099c-14.083,4.963-28.629,7.107-43.544,6.45c-12.732-0.561-25.171-1.086-35.934,6.259
					c-1.857,0.48-3.531,1.815-4.078,3.993l-2.433-0.328c-0.36,0.922-4.89,23.416,2.591,61.987c0,0.002,0.004,0.004,0.004,0.007
					c3.038,15.856,7.702,31.499,5.63,47.81c-0.331,2.608,1.064,4.187,2.939,4.758c0.591,1.284,1.689,2.324,3.277,2.707
					c7.486,1.804,15.108,2.61,22.804,2.312c3.24-0.126,4.929-2.616,5.063-5.143c2.565-0.679,4.443-6.408,4.443-6.408
					s3.456-71.462,3.81-80.988c2.507,26.799,4.838,83.522,4.782,82.29c-0.361,2.731,2.452,5.042,4.957,5.243
					c3.808,3.17,8.023,3.32,12.848,2.992c6.359-0.432,12.716-0.89,19.073-1.335c5.99-0.419,6.677-8.826,1.96-10.311
					c-0.495-7.821-0.402-15.646-0.017-23.47C659.492,474.915,665.521,435.597,667.632,414.455z"/>
				<path style="fill:#708F96;" d="M567.94,421.84c-0.333,0-0.651-0.19-0.798-0.512c-0.201-0.44-0.008-0.961,0.432-1.162
					c5.366-2.455,9.789-6.707,12.453-11.972c0.219-0.431,0.746-0.605,1.179-0.386c0.432,0.219,0.605,0.746,0.387,1.178
					c-2.844,5.618-7.564,10.155-13.289,12.774C568.185,421.815,568.061,421.84,567.94,421.84z"/>
				<path style="fill:#708F96;" d="M660.422,419.538c-0.085,0-0.171-0.013-0.257-0.039c-4.574-1.403-8.484-4.632-10.726-8.859
					c-0.227-0.428-0.063-0.959,0.364-1.186c0.427-0.227,0.958-0.064,1.186,0.364c2.026,3.82,5.558,6.737,9.69,8.004
					c0.463,0.142,0.724,0.633,0.582,1.096C661.144,419.295,660.797,419.538,660.422,419.538z"/>
				<path style="fill:#708F96;" d="M657.906,434.323c-0.485,0-0.877-0.393-0.877-0.877v-6.295c0-0.484,0.392-0.877,0.877-0.877
					c0.485,0,0.877,0.393,0.877,0.877v6.295C658.783,433.931,658.391,434.323,657.906,434.323z"/>
				<path style="fill:#708F96;" d="M657.276,448.801c-0.485,0-0.877-0.393-0.877-0.877v-4.407c0-0.484,0.392-0.877,0.877-0.877
					s0.877,0.393,0.877,0.877v4.407C658.154,448.409,657.761,448.801,657.276,448.801z"/>
				<path style="fill:#708F96;" d="M655.751,466.115c-0.017,0-0.034,0-0.051-0.001c-0.484-0.028-0.853-0.443-0.825-0.926
					l0.418-7.251c0.027-0.484,0.445-0.845,0.926-0.825c0.484,0.028,0.853,0.443,0.825,0.926l-0.418,7.251
					C656.599,465.754,656.212,466.115,655.751,466.115z"/>
				<path style="fill:#708F96;" d="M655.388,479.961c-0.485,0-0.877-0.393-0.877-0.877v-5.351c0-0.484,0.392-0.877,0.877-0.877
					c0.485,0,0.877,0.393,0.877,0.877v5.351C656.265,479.568,655.873,479.961,655.388,479.961z"/>
				<path style="fill:#708F96;" d="M655.073,493.494c-0.485,0-0.877-0.393-0.877-0.877v-5.036c0-0.484,0.392-0.877,0.877-0.877
					c0.485,0,0.877,0.393,0.877,0.877v5.036C655.95,493.101,655.557,493.494,655.073,493.494z"/>
				<path style="fill:#708F96;" d="M570.742,436.522c-0.409,0-0.776-0.288-0.859-0.705c-0.479-2.396-0.528-4.835-0.144-7.248
					c0.076-0.478,0.519-0.803,1.004-0.729c0.478,0.076,0.804,0.525,0.728,1.004c-0.35,2.207-0.306,4.438,0.132,6.63
					c0.095,0.475-0.213,0.937-0.688,1.032C570.857,436.517,570.799,436.522,570.742,436.522z"/>
				<path style="fill:#708F96;" d="M572.919,451.319c-0.012,0-0.023,0-0.035-0.001c-0.484-0.018-0.861-0.426-0.842-0.91
					c0.083-2.152-0.193-4.287-0.82-6.345c-0.141-0.463,0.121-0.954,0.584-1.095c0.466-0.142,0.953,0.121,1.095,0.583
					c0.684,2.246,0.984,4.575,0.893,6.923C573.777,450.948,573.388,451.319,572.919,451.319z"/>
				<path style="fill:#708F96;" d="M576.41,468.311c-0.425,0-0.797-0.308-0.866-0.741c-0.477-3.036-0.815-6.133-1.002-9.205
					c-0.03-0.484,0.338-0.899,0.822-0.929c0.476-0.025,0.899,0.339,0.928,0.822c0.184,3.017,0.516,6.058,0.985,9.039
					c0.075,0.478-0.252,0.927-0.731,1.003C576.501,468.308,576.456,468.311,576.41,468.311z"/>
				<path style="fill:#708F96;" d="M578.905,484.682c-0.474,0-0.864-0.378-0.876-0.855c-0.057-2.266-0.367-4.532-0.918-6.733
					c-0.118-0.47,0.167-0.946,0.637-1.064c0.464-0.116,0.946,0.167,1.064,0.637c0.584,2.327,0.91,4.721,0.971,7.115
					c0.012,0.484-0.371,0.887-0.855,0.899C578.921,484.682,578.913,484.682,578.905,484.682z"/>
				<path style="fill:#708F96;" d="M579.535,500.733c-0.485,0-0.877-0.393-0.877-0.877v-6.295c0-0.484,0.392-0.877,0.877-0.877
					c0.485,0,0.877,0.393,0.877,0.877v6.295C580.412,500.341,580.02,500.733,579.535,500.733z"/>
			</g>
			<path style="fill:#684C3D;" d="M675.36,294.993l13.385,8.349c0,0,10.998-24.447,5.985-74.856l10.368-1.15
				c12.443,60.33,5.215,87.161-1.914,98.786c-3.345,5.454-10.702,6.782-15.838,2.967l-22.798-16.937L675.36,294.993z"/>
			<path style="fill:#272425;" d="M582.405,157.122c-2.799,6.129-3.506,12.975-4.143,19.682c-0.637,6.707-1.274,13.549-3.951,19.732
				c-3.774,8.717-11.384,15.592-13.909,24.749c-0.649,2.353-0.935,4.87-0.315,7.231c1.272,4.845,6.064,8.186,7.234,13.056
				c1.48,6.162-3.291,12.14-3.477,18.474c-0.107,3.664,1.342,7.209,3.212,10.362c5.86,9.884,16.037,16.854,27.123,19.877
				c11.086,3.023,22.994,2.294,34.025-0.921c4.218-1.229,8.387-2.843,11.931-5.44c4.131-3.027,7.228-7.25,9.895-11.622
				c6.325-10.37,10.66-22.75,8.091-34.622c-3.055-14.116-15.458-26.073-14.08-40.45c0.647-6.75,4.321-12.783,6.428-19.228
				c1.269-3.882,1.974-8.004,1.523-12.064c-0.695-6.26-4.161-12.037-8.923-16.16c-4.762-4.123-10.742-6.677-16.9-8.001
				C611.182,138.557,589.519,141.543,582.405,157.122z"/>
			<path style="fill:#ABA185;" d="M623.197,233.252c-9.129,1.76-18.549,1.667-27.643-0.265c-0.551-0.117-0.944,0.248-1.061,0.671
				c-0.269,0.123-0.482,0.365-0.49,0.748c-0.074,3.578,1.86,6.616,4.087,9.256c2.457,2.913,4.901,5.689,6.76,9.046
				c0.446,0.805,0.85,1.627,1.248,2.457c0.286,0.597,0.625,1.186,1.261,1.456c1.553,0.659,2.654-1.496,3.429-2.464
				c2.514-3.137,5.041-6.263,7.54-9.412c2.505-3.157,4.906-6.46,5.947-10.414C624.456,233.647,623.844,233.127,623.197,233.252z"/>
			<path style="fill:#684C3D;" d="M696.766,228.478c-7.31,0.292-11.319-8.009-17.651-10.633c-1.091-0.452-0.717-2.09,0.463-2.027
				c4.816,0.258,12.212,2.63,12.212,2.63s-4.164-19.026-4.082-27.124c0.011-1.089,1.498-1.435,1.993-0.465
				c3.528,6.914,5.263,16.255,5.263,16.255s-0.984-12.366,0.173-18.864c0.191-1.075,1.688-1.186,2.043-0.153
				c2.313,6.721,3.275,18.849,3.275,18.849s0.815-8.849,2.74-14.07c0.375-1.016,1.85-0.866,2.035,0.201
				c1.044,6.011,0.116,15.667,0.116,15.667s0.943-4.311,2.569-7.735c0.529-1.113,2.214-0.581,2.005,0.633
				c-0.675,3.925-2.43,8.56-2.43,8.56c9.095,8.322-2.393,17.132-2.393,17.132L696.766,228.478z"/>
			<g>
				<path style="fill:#684C3D;" d="M622.528,216.551c0.703-2.399-1.261-5.086-3.806-4.996c-3.54,0.124-7.114,0.139-10.668,0.284
					c-1.743-2.008-5.333-5.699-6.547-3.167c-2.235,0.823-3.695-2.142-3.934,0.688c-0.406,4.792,0.375,18.528,0.511,23.337
					l0.45,15.843c0.051,1.795,1.08,2.944,2.374,3.47c1.683,4.319,5.186,7.376,10.951,6.663c2.951-0.365,6.375-1.278,8.445-3.559
					c2.522-2.779,2.411-6.819,2.282-10.319C622.235,235.352,619.804,225.845,622.528,216.551z"/>
				<path style="fill:#684C3D;" d="M592.2,211.489c0.842,1.122,16.638,17.901,31.388,13.823
					c22.246-7.754,21.338-25.094,21.024-50.816c-0.314-25.722-43.479-34.191-53.735-17.253
					C580.621,174.182,585.613,202.706,592.2,211.489z"/>
				<path style="fill:#584036;" d="M594.868,188.081c-0.12-0.581-0.733-0.951-1.304-0.908c-0.631,0.047-1.101,0.529-1.268,1.121
					c-0.18,0.637,0.012,1.293,0.331,1.852c0.339,0.592,0.82,1.09,1.095,1.72c0.095,0.217,0.413,0.267,0.6,0.157
					c0.224-0.131,0.252-0.382,0.157-0.6c-0.212-0.487-0.546-0.896-0.845-1.329c-0.253-0.366-0.526-0.79-0.533-1.251
					c-0.002-0.159,0.026-0.324,0.095-0.463c0.045-0.092,0.081-0.144,0.15-0.21c0.059-0.056,0.01-0.018,0.078-0.062
					c0.013-0.008,0.126-0.056,0.072-0.038c0.09-0.031,0.079-0.027,0.187-0.022c0.041,0.002-0.02-0.009,0.048,0.007
					c0,0,0.076,0.023,0.088,0.024c0.037,0.016,0.076,0.037,0.107,0.059c-0.038-0.027,0.015,0.018,0.038,0.039
					c0.004,0.008,0.023,0.036,0.036,0.054c0,0.011,0.022,0.08,0.023,0.084c0.048,0.232,0.322,0.366,0.539,0.306
					C594.803,188.554,594.916,188.314,594.868,188.081z"/>
				<path style="fill:#F8EBC1;" d="M594.202,194.673c-1.129,0-1.13,1.754,0,1.754C595.331,196.427,595.333,194.673,594.202,194.673z
					"/>
			</g>
			<g>
				<path style="fill:#272425;" d="M630.397,182.958c1.386-0.982,3.053-1.496,4.758-1.349c1.669,0.144,3.174,0.906,4.37,2.059
					c0.418,0.403,0.276,1.168-0.135,1.512c-0.484,0.405-1.093,0.27-1.512-0.134c-0.722-0.697-1.828-1.205-2.913-1.299
					c-1.127-0.097-2.326,0.244-3.191,0.857c-0.473,0.335-1.118,0.336-1.512-0.134C629.913,184.052,629.921,183.294,630.397,182.958z
					"/>
				<path style="fill:#272425;" d="M611.051,181.879c1.386-0.982,3.053-1.496,4.758-1.348c1.669,0.144,3.174,0.906,4.37,2.059
					c0.418,0.403,0.276,1.168-0.135,1.512c-0.484,0.405-1.093,0.27-1.512-0.134c-0.722-0.697-1.828-1.205-2.913-1.299
					c-1.127-0.097-2.326,0.244-3.19,0.857c-0.473,0.335-1.118,0.336-1.512-0.134C610.567,182.973,610.575,182.216,611.051,181.879z"
					/>
				<path style="fill:#584036;" d="M627.164,204.315c1.169-0.561,1.588-1.964,1.49-3.176c-0.122-1.51-0.787-2.926-1.183-4.375
					c-0.804-2.938-1.048-6.017-0.751-9.047c0.045-0.459,0.758-0.396,0.713,0.063c-0.326,3.331,0.021,6.712,1.053,9.899
					c0.457,1.411,1.051,2.883,0.863,4.396c-0.15,1.203-0.764,2.352-1.888,2.891C627.045,205.165,626.747,204.514,627.164,204.315z"
					/>
				<path style="fill:#68402E;" d="M608.875,200.445c0,1.205,1.874,2.182,4.186,2.182c2.312,0,4.186-0.977,4.186-2.182
					c0-1.205-1.874-2.182-4.186-2.182C610.748,198.262,608.875,199.239,608.875,200.445z"/>
				<path style="fill:#68402E;" d="M632.646,199.908c0,1.205,1.874,2.182,4.186,2.182c2.312,0,4.186-0.977,4.186-2.182
					c0-1.205-1.874-2.182-4.186-2.182C634.52,197.726,632.646,198.703,632.646,199.908z"/>
				<path style="fill:#FFFFFF;" d="M616.602,207.814c0,0,10.771,2.429,14.706,3.101
					C631.308,210.915,618.646,218.994,616.602,207.814z"/>
				<path style="fill:#272425;" d="M619.73,192.14c-0.707-0.999-1.84-1.697-3.066-1.816c-1.31-0.127-2.585,0.361-3.51,1.287
					c-0.396,0.396,0.274,0.952,0.667,0.559c1.488-1.488,3.988-1.235,5.192,0.466C619.338,193.093,620.054,192.598,619.73,192.14z"/>
				<path style="fill:#272425;" d="M631.289,192.14c0.707-0.999,1.84-1.697,3.066-1.816c1.31-0.127,2.585,0.361,3.51,1.287
					c0.396,0.396-0.274,0.952-0.667,0.559c-1.488-1.488-3.988-1.235-5.192,0.466C631.681,193.093,630.965,192.598,631.289,192.14z"
					/>
			</g>
			<g>
				<path style="fill:#F8EBC1;" d="M685.683,294.575c-45.759-37.12-7.093-53.712-57.692-51.633l0.002,0.007
					c-2.951-0.836-5.953-1.529-8.938-2.204c-2.71,1.759-5.192-0.485-8.016,2.028c-0.76,1.805-0.245,8.728-0.917,12.3
					c0.082-0.137-3.072-5.679-2.287-12.3c-1.58-2.525-4.469,0.059-7.785-0.287c-1.247-0.6-3.641-0.152-6.283,0.712l0.234-1.42
					c-21.344,4.347-30.472,4.576-34.259,24.939c-3.787,20.363-6.075,47.818-15.456,68.867c8.3,8.768,16.594,11.318,22.727,11.721
					c0.093,0.336,0.153,0.685,0.202,1.028c2.211,15.512-2.907,30.989-5.621,46.42c-0.142,0.806-0.263,1.694,0.159,2.395
					c0.392,0.651,1.15,0.968,1.86,1.239c14.575,5.572,29.926,9.107,45.47,10.469l1.328-24.205
					c1.797,10.647,6.948,21.425,8.096,22.401c2.317,1.97,5.821,0.743,8.619-0.45c12.701-5.413,26.45-8.353,40.254-8.606
					c1.073-0.02,2.393-0.183,2.785-1.183c0.173-0.441,0.103-0.934,0.028-1.402c-2.44-15.19-7.742-29.747-11.805-44.586
					c-3.868-14.128-6.617-28.925-4.605-43.394l18.171,19.228C671.955,326.662,688.886,320.713,685.683,294.575z"/>
				<g>
					<path style="fill:#D4C8A4;" d="M607.69,242.293c-0.453-0.927-1.741-1.22-2.617-1.59c-1.303-0.55-2.609-1.1-3.854-1.773
						c-2.186-1.181-4.267-2.83-5.215-5.199c-0.285-0.71-1.152-0.865-1.603-0.21c-2.544,3.702-5.131,7.401-8.571,10.339
						c-0.427,0.365-0.288,1.12,0.178,1.378c4.651,2.565,9.493,5.248,12.811,9.51c0.019,0.699,1.071,0.969,1.576,0.399
						c0.188-0.144,0.311-0.349,0.31-0.579c0.964-2.338,2.167-4.574,3.593-6.663c0.724-1.061,1.506-2.079,2.344-3.052
						C607.252,244.142,608.199,243.334,607.69,242.293z"/>
					<path style="fill:#D4C8A4;" d="M612.234,244.853c0.838,0.973,1.62,1.992,2.344,3.052c1.426,2.089,2.629,4.325,3.593,6.663
						c-0.001,0.23,0.123,0.435,0.31,0.579c0.504,0.57,1.556,0.3,1.576-0.399c3.318-4.262,8.16-6.946,12.811-9.51
						c0.466-0.257,0.605-1.012,0.178-1.378c-3.44-2.938-6.026-6.637-8.57-10.339c-0.451-0.656-1.319-0.501-1.603,0.21
						c-0.949,2.369-3.03,4.018-5.215,5.199c-1.245,0.673-2.551,1.223-3.854,1.773c-0.876,0.37-2.164,0.662-2.617,1.59
						C610.675,243.334,611.621,244.142,612.234,244.853z"/>
				</g>
				<g>
					<path style="fill:#D4C8A4;" d="M652.008,278.089c-1.284-0.249-2.589-0.386-3.922-0.357c-4.751,0.105-7.506,2.184-10.835,5.17
						c-5.121,4.592-9.141-2.883-13.632-4.964c-3.278-1.519-6.588-1.105-9.627,0.762c-2.721,1.672-6.127,6.389-9.673,5.336
						c-3.569-1.06-5.398-5.351-9.225-6.323c-3.986-1.012-7.012,1.305-10.14,3.386c-4.307,2.866-7.971,1.297-11.018-1.549
						c0.003,1.45-0.003,2.901-0.021,4.357c-0.008,0.672-0.017,1.344-0.026,2.015c4.039,2.457,8.666,3.065,13.72-0.279
						c2.019-1.336,4.065-3.518,6.67-2.59c1.883,0.671,3.322,2.678,4.858,3.883c2.759,2.164,5.866,3.178,9.277,1.96
						c3.596-1.285,5.791-4.752,9.239-6.199c4.761-1.998,8.754,4.757,12.796,6.466c4.224,1.786,7.434,0.521,10.521-2.54
						c3.546-3.516,7.315-3.928,11.239-2.997C652.128,281.781,652.061,279.935,652.008,278.089z"/>
					<path style="fill:#D4C8A4;" d="M652.604,290.621c-3.822-0.312-7.721,0.741-11.234,3.201c-1.933,1.353-3.947,3.292-6.451,3.332
						c-2.155,0.034-4.171-1.298-5.981-2.308c-3.161-1.764-6.405-3.66-10.159-3.317c-4.236,0.387-7.314,4.627-11.582,4.127
						c-3.989-0.467-7.398-3.285-11.297-4.206c-3.776-0.891-6.96,0.081-10.218,1.999c-2.653,1.561-4.881,3.005-8.07,1.928
						c-1.429-0.482-2.716-1.298-3.917-2.235c-0.097,1.923-0.247,3.839-0.478,5.745c4.439,2.395,9.058,2.692,14.547-0.543
						c5.168-3.047,8.254-1.388,13.325,0.826c3.356,1.465,6.812,2.466,10.417,1.294c1.888-0.614,3.385-1.855,5.135-2.732
						c2.639-1.322,4.529-1.011,7.095,0.248c3.203,1.571,6.122,3.826,9.755,4.309c3.922,0.522,6.953-1.337,10.01-3.535
						c2.951-2.122,6.262-3.3,9.511-2.872C652.858,294.129,652.724,292.375,652.604,290.621z"/>
					<path style="fill:#D4C8A4;" d="M651.854,266.043c-4.626-1.422-9.397-1.537-14.427,0.928c-2.229,1.092-4.267,2.307-6.848,1.719
						c-2.007-0.457-3.853-1.791-5.673-2.704c-3.055-1.534-6.2-2.507-9.598-1.564c-3.415,0.948-5.768,3.707-8.96,5.022
						c-4.514,1.859-7.416-2.185-11.226-3.879c-3.169-1.409-6.238-1.148-9.302,0.409c-1.875,0.953-3.644,2.527-5.786,2.76
						c-2.431,0.265-4.568-1.071-5.641-3.14c-0.015,0.001-0.029,0.004-0.045,0.005c-0.325,0.073-0.65,0.101-0.976,0.103
						c0.008,0.387,0.018,0.774,0.02,1.161c0.174,1.824,0.297,3.651,0.381,5.481c3.263,1.964,7.496,2.126,11.349,0.106
						c2.498-1.31,4.7-3.297,7.644-2.153c1.96,0.761,3.546,2.283,5.368,3.304c3.077,1.724,6.216,2.249,9.559,0.971
						c3.763-1.439,7.143-5.866,11.464-5.224c3.968,0.589,7.093,3.95,11.114,4.652c4.559,0.796,7.553-1.88,11.604-3.304
						c3.398-1.195,6.789-0.569,10.003,0.742C651.861,269.638,651.852,267.84,651.854,266.043z"/>
				</g>
				<g>
					<path style="fill:#ABA185;" d="M573.724,264.469c-0.484,0.017-0.863,0.423-0.846,0.907c0.737,21.547-1.115,48.13-4.835,69.374
						c-0.083,0.477,0.236,0.931,0.713,1.015c0.051,0.009,0.103,0.013,0.153,0.013c0.418,0,0.789-0.3,0.863-0.726
						c3.739-21.355,5.601-48.076,4.859-69.736C574.613,264.831,574.213,264.457,573.724,264.469z"/>
					<path style="fill:#ABA185;" d="M653.049,272.142c-0.011-0.478-0.402-0.858-0.877-0.858c-0.006,0-0.013,0-0.02,0
						c-0.484,0.011-0.868,0.412-0.857,0.896l0.609,27.496c0.011,0.478,0.402,0.858,0.877,0.858c0.006,0,0.013,0,0.02,0
						c0.484-0.011,0.868-0.412,0.857-0.896L653.049,272.142z"/>
					<path style="fill:#ABA185;" d="M609.983,256.304c-0.479,0.068-0.812,0.513-0.743,0.993c2.418,16.839,1.213,36.807-0.062,57.949
						c-1.303,21.603-2.651,43.942-0.111,64.276c0.056,0.444,0.433,0.768,0.869,0.768c0.036,0,0.073-0.002,0.11-0.007
						c0.48-0.06,0.821-0.498,0.761-0.979c-2.519-20.173-1.177-42.429,0.122-63.952c1.281-21.233,2.49-41.289,0.048-58.304
						C610.907,256.568,610.466,256.234,609.983,256.304z"/>
				</g>
			</g>
			<path style="fill:#272425;" d="M593.057,182.046c-1.378-0.538-3.123-0.42-4.114,0.678c-0.803,0.889-0.941,2.186-0.913,3.383
				c0.059,2.581,0.713,5.146,1.896,7.441c1.184,2.296,3.608,4.544,6.047,3.697c0.96,6.493,1.372,13.046,1.53,19.607
				c-3.387-1.625-6.734-3.332-9.149-6.21c-1.932-2.303-3.022-5.187-3.919-8.056c-3.68-11.766-4.688-24.359-2.925-36.56
				c0.769-5.323,2.222-10.872,6.07-14.63c2.723-2.659,6.379-4.164,10.062-5.124c16.471-4.296,35.153,0.91,46.68,12.907
				c2.316,2.41,4.539,5.548,3.833,8.815c-0.561,2.596-2.914,4.515-5.458,5.281c-2.543,0.766-5.267,0.575-7.907,0.284
				c-2.467-0.273-4.924-0.627-7.367-1.063c-1.884-0.336-3.918-0.812-5.123-2.298c-0.355-0.438-0.73-1.005-1.293-0.977
				c-0.297,0.015-0.553,0.203-0.793,0.378c-5.487,3.993-13.178,4.72-19.316,1.825c1.283,0.605-1.29,7.868-1.721,8.801
				c-0.388,0.84-1.512,3.626-2.458,3.883C595.673,184.391,594.175,182.483,593.057,182.046z"/>
		</g>
		<g style="clip-path:url(#SVGID_00000111157501636882167800000011893858131699945359_);">
			<g>
				<path style="fill:#EAAA85;" d="M85.381,379.586c-0.033-1.187-0.066-2.374-0.099-3.562l-0.199-7.124
					c-0.063-2.268-0.482-4.198-2.696-5.26c-2.036-0.976-4.278-1.635-6.392-2.425c-0.235-0.088-0.467-0.126-0.693-0.127
					c0.215-1.038,0.496-2.063,0.853-3.062c0.434-1.216-0.49-2.616-1.669-2.94c-1.324-0.364-2.505,0.449-2.94,1.669
					c-1.608,4.507-1.862,9.426-0.846,14.096c0.038,0.177,0.093,0.348,0.136,0.523c-1.575-1.075-4.583,0.53-3.694,2.66
					c0.622,1.492,1.266,3.028,1.963,4.549l0.824,1.903c0.748,1.727,1.317,4.036,2.768,5.302c0.386,0.337,0.798,0.55,1.218,0.669
					c1.574,1.171,3.514,0.537,5.425-0.146c1.993-0.713,4.703-1.173,5.708-3.255C85.565,381.981,85.414,380.743,85.381,379.586z"/>
				<path style="fill:#EAAA85;" d="M88.116,361.821c-5.526-13.707-11.041-27.419-16.578-41.121
					c-3.464-8.573-7.036-17.119-12.341-24.591c3.024-4.243,4.62-7.479,7.69-10.95c6.707-7.581,10.051-14.616,12.657-23.312
					c1.464-4.885-4.163-8.888-8.426-6.478c-0.017,0.01-0.034,0.019-0.051,0.029c-2.219,1.262-4.961,1.213-7.02-0.297
					c-2.014-1.478-4.796-1.698-6.965,0.739c-7.603,8.54-15.943,17.254-21.667,27.227c-6.031,10.507-2.198,19.412,3.38,29.065
					c11.376,19.686,24.771,38.161,39.735,55.271C82.157,371.551,90.266,367.155,88.116,361.821z"/>
			</g>
			<g>
				<path style="fill:#6B645C;" d="M181.619,367.102c-3.454-5.553-9.612-7.618-15.794-8.228c-7.378-0.727-14.984-0.271-22.384-0.109
					c-18.887,0.413-37.737,1.787-56.495,4.029c-0.126,0.015-0.245,0.041-0.366,0.062c-3.36-2.621-9.587-1.222-9.393,4.25
					c1.165,32.785,3.322,65.53,6.524,98.179c0.793,8.084,1.649,16.162,2.567,24.233c0.802,7.046,0.776,15.123,2.996,21.888
					c1.948,5.937,6.887,9.294,13.008,9.74c5.347,0.39,12.818-3.647,17.488-0.472c3.704,2.518,8.585-0.847,8.631-4.953
					c0.22-19.583,0.44-39.166,0.66-58.748c0.114-10.107,0.227-20.215,0.341-30.322c0.05-4.422,0.099-8.844,0.149-13.266
					c0.035-3.078-0.154-6.326-0.156-9.525c1.329,3.499,2.424,7.094,3.339,10.718c2.057,8.155,3.153,16.489,3.863,24.858
					c1.436,16.919,1.573,33.929,4.139,50.744c1.272,8.333,2.336,19.391,9.195,25.192c7.874,6.66,18.387,4.713,27.42,2.024
					c2.307-0.687,4.355-3.002,4.211-5.531c-1.908-33.598-1.84-67.29,0.313-100.875c0.523-8.159,1.167-16.31,1.932-24.45
					C184.419,380.04,185.257,372.952,181.619,367.102z"/>
			</g>
			<g>
				<path style="fill:#EAAA85;" d="M204.029,258.974l8.604,8.978c0,0,15.15-25.812,19.826-49.005h10.568
					c-1.779,35.699-12.143,59.922-18.61,71.788c-2.597,4.765-8.635,6.4-13.281,3.595l-29.74-17.962L204.029,258.974z"/>
				<path style="fill:#EAAA85;" d="M232.459,218.947c-5.269-1.485-14.881-9.741-18.66-13.119c-0.657-0.587-0.249-1.662,0.632-1.684
					c2.469-0.063,6.691,0.421,11.08,3.596c0,0-3.808-13.888-3.578-21.826c0.029-1.012,1.38-1.323,1.831-0.417
					c1.177,2.36,2.868,6.087,4.225,10.42c0,0-1.361-11.755-0.357-17.367c0.172-0.962,1.514-1.063,1.859-0.149
					c2.338,6.196,2.508,17.516,2.508,17.516s0.142-6.768,1.26-11.973c0.22-1.023,1.702-0.998,1.896,0.031
					c1.073,5.697,0.926,12.976,0.926,12.976s2.173-4.438,4.236-8.234c0.488-0.897,1.863-0.525,1.823,0.495
					c-0.194,4.936-2.997,9.706-2.997,9.706s9.883,11.699,3.884,20.028H232.459z"/>
			</g>
			<g>
				<path style="fill:#F1CB64;" d="M182.928,231.827c-11.059-13.499-28.658-19.406-45.293-24.679l-25.031,0.14
					c-12.129,7.06-24.656,13.122-35.299,22.397c-12.967,11.3-22.599,24.926-33.464,38.081c7.926,6.323,15.166,13.507,21.552,21.383
					c4.696-6.095,10.699-11.178,17.483-14.808c-6.545,30.123,0.55,61.992-6.262,92.056c-0.209,0.924-0.427,1.916-0.072,2.795
					c0.376,0.93,1.301,1.501,2.183,1.98c15.698,8.528,34.685,7.821,52.398,5.497c17.713-2.324,35.706-6.036,53.269-2.765
					c-4.839-31.998-8.424-64.185-10.744-96.463c5.093,1.827,9.92,5.8,13.699,9.673c3.746-10.737,13.156-19.167,22.251-25.994
					C202.752,253.736,186.733,236.471,182.928,231.827z"/>
				<g>
					<path style="fill:#CFAC59;" d="M83.071,270.896c-0.009,0-0.018,0-0.027,0c-0.528-0.014-0.944-0.454-0.929-0.982
						c0.319-11.631,1.307-23.372,2.937-34.896c0.074-0.523,0.562-0.887,1.081-0.813c0.523,0.074,0.886,0.558,0.813,1.081
						c-1.62,11.453-2.602,23.122-2.919,34.681C84.012,270.485,83.586,270.896,83.071,270.896z"/>
					<path style="fill:#CFAC59;" d="M171.332,271.143c-0.444,0-0.842-0.311-0.936-0.763c-1.302-6.332-2.189-12.816-2.635-19.271
						c-0.036-0.527,0.361-0.983,0.888-1.02c0.514-0.034,0.983,0.36,1.02,0.888c0.44,6.37,1.314,12.769,2.6,19.017
						c0.106,0.517-0.227,1.023-0.744,1.129C171.461,271.138,171.395,271.143,171.332,271.143z"/>
					<path style="fill:#CFAC59;" d="M120.611,349.747c-0.387,0-0.752-0.237-0.895-0.621c-0.185-0.494,0.066-1.045,0.56-1.23
						c7.076-2.65,15.29-6.069,22.555-11.336c7.439-5.392,12.773-12.042,15.424-19.23c0.182-0.495,0.734-0.75,1.228-0.566
						c0.495,0.182,0.749,0.732,0.566,1.228c-2.783,7.545-8.349,14.501-16.095,20.116c-7.45,5.4-15.811,8.883-23.007,11.578
						C120.836,349.727,120.722,349.747,120.611,349.747z"/>
					<path style="fill:#CFAC59;" d="M142.262,327.742c-0.352,0-0.689-0.194-0.857-0.529c-0.236-0.472-0.043-1.047,0.429-1.282
						c4.202-2.094,7.601-5.594,9.571-9.855c0.222-0.479,0.79-0.687,1.269-0.466c0.479,0.222,0.688,0.79,0.466,1.269
						c-2.152,4.653-5.864,8.476-10.453,10.764C142.55,327.71,142.405,327.742,142.262,327.742z"/>
				</g>
				<path style="fill:#FFE4A1;" d="M125.855,241.189c-3.548,5.957-6.938,11.769-10.401,17.367
					c-3.459,5.605-7.052,11.029-10.855,16.499l-0.095-5.037l24.111,35.307l-3.81,0.024l22.91-34.588l-0.059,4.997
					c-3.894-5.588-7.577-11.128-11.127-16.851C132.975,253.193,129.495,247.264,125.855,241.189z M125.85,232.585
					c4.806,6.064,9.77,12.273,14.661,18.696c4.895,6.415,9.656,13.013,14.208,19.564l1.837,2.643l-1.896,2.354l-26.026,32.308
					l-1.893,2.349l-1.917-2.325l-27.198-32.987l-1.948-2.363l1.854-2.674c4.46-6.434,9.129-12.916,13.933-19.216
					C116.263,244.626,121.136,238.533,125.85,232.585z"/>
			</g>
			<path style="fill:#EAAA85;" d="M138.377,207.401c-0.403-3.737-0.805-7.473-1.208-11.209c-0.107-0.997-0.213-1.994-0.322-2.991
				c-0.091-0.832-0.129-1.714-0.594-2.442c-0.857-1.341-2.471-1.507-3.921-1.478c-4.229,0.086-8.458,0.205-12.687,0.308
				c-1.752,0.042-3.889-0.246-5.57,0.302c-1.73,0.563-1.961,2.256-1.967,3.834c-0.018,4.612-0.016,9.223-0.023,13.835
				c-1.199,0.695-2.401,1.383-3.605,2.063c4.686,3.436,10.747,5.665,15.676,6.424c7.838,1.206,13.971-2.025,19.069-7.085
				C141.605,208.43,139.988,207.913,138.377,207.401z"/>
			<g>
				<path style="fill:#272425;" d="M163.429,132.236c-0.941-7.218-4.425-14.867-10.21-19.488c-3.138-2.507-7.38-3.894-11.279-2.697
					c-1.765-4.136-4.988-7.45-9.088-9.572c-5.243-2.713-11.551-3.27-17.327-2.419c-11.385,1.677-22.395,8.574-29.63,17.436
					c-3.703,4.536-6.445,10.037-6.962,15.931c-0.499,5.692,0.826,12.064,5.25,16.018c1.981,1.771,4.676,2.844,7.352,2.501
					c3.061-0.393,5.527-2.252,7.711-4.302c3.229-3.031,5.951-6.522,8.709-9.978c3.523,1.594,7.326,2.782,11.164,3.953
					c8.615,2.627,16.451,6.777,23.764,12.017c3.025,2.168,7.662,1.694,10.743-0.18c0.059,0.531,0.118,1.063,0.177,1.594
					c0.208,1.864,2.971,3.107,4.181,1.312C162.345,147.887,164.444,140.025,163.429,132.236z"/>
				<g>
					<ellipse style="fill:#EAAA85;" cx="124.768" cy="154.555" rx="31.745" ry="43.604"/>
					<path style="fill:#EAAA85;" d="M162.406,150.857c-0.216-1.529-0.711-3.255-2.179-4.049c-2.005-1.084-3.863,0.304-4.802,2.055
						c-1.002,1.867-1.954,3.761-2.931,5.641c-0.476,0.916-0.236,2.077,0.686,2.616c0.161,0.094,0.338,0.152,0.52,0.193
						c-1.323,2.077-2.286,4.539-2.104,6.885c0.145,1.86,1.295,3.459,3.239,3.673c1.88,0.207,3.396-0.91,4.428-2.382
						c1.939-2.765,2.941-6.243,3.28-9.569C162.716,154.227,162.644,152.541,162.406,150.857z"/>
					<path style="fill:#EAAA85;" d="M87.082,155.921c0.339,3.326,1.341,6.804,3.28,9.569c1.032,1.472,2.547,2.589,4.428,2.382
						c1.944-0.214,3.095-1.813,3.239-3.673c0.182-2.347-0.78-4.808-2.104-6.885c0.182-0.041,0.36-0.099,0.52-0.193
						c0.922-0.539,1.162-1.7,0.686-2.616c-0.977-1.88-1.93-3.775-2.931-5.641c-0.94-1.751-2.798-3.139-4.803-2.055
						c-1.468,0.794-1.962,2.52-2.179,4.049C86.98,152.541,86.909,154.227,87.082,155.921z"/>
					<path style="fill:#C08B73;" d="M156.709,158.869c-0.087-0.492-0.358-0.99-0.735-1.319c-0.428-0.373-0.926-0.525-1.487-0.442
						c-0.256,0.038-0.396,0.361-0.334,0.588c0.075,0.274,0.332,0.372,0.588,0.334c0.075-0.011,0.253,0.02,0.331,0.055
						c0.159,0.07,0.251,0.152,0.368,0.282c0.206,0.228,0.343,0.57,0.355,0.863c0.034,0.888-0.577,1.687-1.068,2.37
						c-0.15,0.21-0.037,0.532,0.172,0.654c0.24,0.141,0.503,0.039,0.654-0.172C156.221,161.151,156.921,160.071,156.709,158.869z"/>
					<path style="fill:#C08B73;" d="M94.788,160.604c-0.743-0.291-1.523-0.775-1.746-1.582c-0.098-0.355-0.07-0.704,0.147-0.999
						c0.193-0.263,0.486-0.39,0.808-0.353c0.257,0.029,0.478-0.24,0.478-0.478c0-0.283-0.22-0.449-0.478-0.478
						c-0.561-0.063-1.134,0.216-1.491,0.641c-0.416,0.495-0.539,1.116-0.426,1.745c0.226,1.251,1.355,1.996,2.454,2.426
						c0.241,0.094,0.525-0.103,0.588-0.334C95.197,160.921,95.03,160.699,94.788,160.604z"/>
				</g>
				<path style="fill:#272425;" d="M152.123,117.459c-4.585-5.127-11.208-8.431-18.043-8.896c-2.629-1.92-5.867-2.912-9.116-3.174
					c-3.353-0.27-6.727,0.19-10.014,0.905c-5.714,1.243-11.313,3.293-16.134,6.603c-4.821,3.309-8.837,7.943-10.835,13.439
					c-1.998,5.496-1.834,11.868,0.995,16.986c1.287,2.327,3.304,4.485,5.925,4.929c2.968,0.503,5.894-1.347,7.765-3.705
					c1.871-2.358,2.986-5.214,4.519-7.806c2.717-4.595,6.978-8.461,12.145-9.801c5.167-1.34,11.21,0.238,14.402,4.517
					c2.034-0.83,4.631,0.396,5.854,2.221c1.223,1.825,1.631,4.054,2.266,6.157c0.908,3.005,2.415,5.955,4.924,7.842
					c2.509,1.887,6.172,2.463,8.813,0.765c2.713-1.745,3.658-5.255,3.904-8.471C160.112,131.88,157.531,123.507,152.123,117.459z"/>
				<g>
					<path d="M116.455,149.286c-1.838-1.302-4.047-1.983-6.307-1.788c-2.213,0.191-4.208,1.201-5.792,2.73
						c-0.554,0.535-0.367,1.548,0.178,2.004c0.642,0.537,1.449,0.358,2.004-0.178c0.957-0.923,2.424-1.597,3.862-1.722
						c1.494-0.129,3.083,0.324,4.229,1.136c0.627,0.444,1.482,0.445,2.004-0.178C117.096,150.737,117.085,149.733,116.455,149.286z"
						/>
					<path d="M142.101,148.247c-1.838-1.302-4.047-1.983-6.307-1.788c-2.213,0.191-4.208,1.201-5.792,2.73
						c-0.554,0.535-0.367,1.548,0.178,2.004c0.642,0.537,1.449,0.358,2.004-0.178c0.957-0.923,2.424-1.597,3.862-1.722
						c1.494-0.129,3.083,0.324,4.229,1.136c0.627,0.444,1.482,0.445,2.004-0.178C142.742,149.697,142.731,148.693,142.101,148.247z"
						/>
					<ellipse cx="112.425" cy="163.398" rx="1.45" ry="1.848"/>
					<ellipse cx="135.085" cy="163.398" rx="1.45" ry="1.848"/>
					<path style="fill:#C08B73;" d="M121.068,176.974c-1.55-0.743-2.104-2.603-1.974-4.211c0.162-2.001,1.043-3.879,1.568-5.799
						c1.066-3.895,1.389-7.976,0.996-11.993c-0.06-0.608-1.004-0.525-0.945,0.084c0.432,4.416-0.028,8.898-1.396,13.122
						c-0.606,1.871-1.394,3.821-1.144,5.828c0.199,1.595,1.013,3.118,2.502,3.832C121.225,178.101,121.62,177.239,121.068,176.974z"
						/>
					<path style="fill:#FFFFFF;" d="M115.398,185.236c0,0,10.291-1.464,16.931-2.388
						C132.33,182.848,125.027,191.092,115.398,185.236z"/>
					<path style="fill:#E28C61;" d="M144.424,173.327c0,1.598-2.484,2.893-5.549,2.893s-5.549-1.295-5.549-2.893
						c0-1.598,2.484-2.893,5.549-2.893S144.424,171.73,144.424,173.327z"/>
					<ellipse style="fill:#E28C61;" cx="107.363" cy="172.616" rx="5.549" ry="2.893"/>
				</g>
			</g>
		</g>
	</g>
</g>
</svg>
